# xmcd
#
# Track frame offsets:
#	150
#	15052
#	30067
#	46962
#	60020
#	81227
#	93412
#	106927
#	125575
#	142530
#	157737
#	176135
#	191852
#	223535
#
# Disc length: 3832 seconds
#
# Revision: 2
# Processed by: cddbd v1.4b41PL2 Copyright (c) Steve Scherf et al.
# Submitted via: audiograbber 1.80
#
DISCID=9c0ef60e
DTITLE=Brad Paisley - Who Needs Pictures
DYEAR=1900
DGENRE=Country
TTITLE0=Long Sermon
TTITLE1=Me Neither
TTITLE2=Who Needs Pictures
TTITLE3=Don't Breathe
TTITLE4=He Didn't Have To Be
TTITLE5=It Never Woulda Worked Out Anyway
TTITLE6=Holdin' On To You
TTITLE7=I've Been Better
TTITLE8=We Danced
TTITLE9=Sleepin' On The Foldout
TTITLE10=Cloud Of Dust
TTITLE11=The Nervous Breakdown
TTITLE12=In The Garden
TTITLE13=Data Track
EXTD=YEAR:       ID3G:   2
EXTT0=
EXTT1=
EXTT2=
EXTT3=
EXTT4=
EXTT5=
EXTT6=
EXTT7=
EXTT8=
EXTT9=
EXTT10=
EXTT11=
EXTT12=
EXTT13=
PLAYORDER=
